<?xml version="1.0" encoding="iso-8859-1"?>
<!-- Generator: Adobe Illustrator 19.0.0, SVG Export Plug-In . SVG Version: 6.00 Build 0)  -->
<svg version="1.1" id="Layer_1" xmlns="http://www.w3.org/2000/svg" xmlns:xlink="http://www.w3.org/1999/xlink" x="0px" y="0px"
	 viewBox="0 0 275.542 275.542" style="enable-background:new 0 0 275.542 275.542;" xml:space="preserve">
<g>
	<g>
		<g>
			<path style="fill:#2D213F;" d="M18.516,221.078l75.268-94.719h117.112c2.723,0,5.271-1.317,6.818-3.524l36.82-52.561
				l18.477,11.525l2.531-60.113l-54.179,27.9l19.176,11.96l-33.994,48.524H89.747c-2.547,0-4.953,1.153-6.523,3.127l-66.665,83.896
				V14.552c0-4.498-3.707-8.145-8.279-8.145S0,10.054,0,14.552V260.99c0,4.498,3.707,8.145,8.279,8.145h250.475
				c4.572,0,8.279-3.646,8.279-8.145s-3.707-8.145-8.279-8.145H16.558v-30.044C17.276,222.328,17.955,221.783,18.516,221.078z"/>
		</g>
	</g>
</g>
<g>
</g>
<g>
</g>
<g>
</g>
<g>
</g>
<g>
</g>
<g>
</g>
<g>
</g>
<g>
</g>
<g>
</g>
<g>
</g>
<g>
</g>
<g>
</g>
<g>
</g>
<g>
</g>
<g>
</g>
</svg>
